<svg xmlns="http://www.w3.org/2000/svg" xmlns:xlink="http://www.w3.org/1999/xlink" width="260" height="153" viewBox="0 0 260 153"><defs><style>.a,.d,.f,.j,.n{fill:none;}.b{clip-path:url(#a);}.c{fill:#f7f7f7;}.d{stroke:#008f95;stroke-width:3.06px;opacity:0.15;}.d,.f,.j,.n{stroke-linecap:round;}.d,.j,.n{stroke-linejoin:round;}.e{fill:#fff;}.f{stroke:#000;stroke-miterlimit:10;stroke-width:5px;}.g{fill:#00767a;}.h{fill:#383838;opacity:0.373;}.i{fill:#8ce08c;}.j{stroke:#2b7c63;stroke-width:4.49px;}.k,.l{fill:#008f95;}.k,.m{fill-rule:evenodd;}.m{fill:#4caeb3;}.n{stroke:#4caeb3;stroke-width:5.14px;}</style><clipPath id="a"><rect class="a" width="260" height="153" transform="translate(360 272)"/></clipPath></defs><g class="b" transform="translate(-360 -272)"><g transform="translate(375 214.086)"><path class="c" d="M172.665,50.434c28.892-3.126,60.024,4.7,73.08,24.135,13.061,19.375,8.047,50.368,9.628,81.1s9.718,61.179-1.674,75.545-42.352,12.618-65.747,5.955-39.2-18.186-56.06-31.157c-16.8-12.988-34.647-27.34-41.7-48.318-7.115-20.975-3.436-48.5,11.731-69.3S143.772,53.556,172.665,50.434Z" transform="translate(-62.219 -35.715)"/><path class="d" d="M402.758,134.28,341.08,210.934,452.068,238.9Z" transform="translate(-244.777 -96.367)"/><path class="e" d="M138.736,618.65h-97.2L0,655.683H180.272Z" transform="translate(0 -443.977)"/><path class="f" d="M219.055,680.871c-6.841,0-6.841-7.341-13.685-7.341s-6.844,7.341-13.688,7.341S184.84,673.53,178,673.53s-6.844,7.341-13.688,7.341-6.844-7.341-13.688-7.341" transform="translate(-108.093 -483.362)"/><path class="g" d="M664.326,361.72c1.412,4.8-1.129,30.776-6.776,53.363,2.259,11.012,10.164,49.411,10.164,49.411H655.008L628.75,398.707Z" transform="translate(-451.225 -259.59)"/><path class="h" d="M662.033,392.894c2.394-15.01,3.247-27.93,2.293-31.174L628.75,398.707l12.192,30.544C644.959,416.478,651.626,402.336,662.033,392.894Z" transform="translate(-451.225 -259.59)"/><circle class="i" cx="14.05" cy="14.05" r="14.05" transform="translate(152.173 0)"/><path class="j" d="M534.19,22.806a26.275,26.275,0,0,0,29.556-3.456" transform="translate(-383.364 -13.887)"/><path class="j" d="M554.068,60.019c-1.129-.9-1.728-2.05-1.313-2.581s1.68-.237,2.823.658,1.731,2.05,1.316,2.581S555.211,60.914,554.068,60.019Z" transform="translate(-396.592 -41.031)"/><path class="k" d="M526.1,251.463a9.69,9.69,0,1,1,9.688,9.687,9.69,9.69,0,0,1-9.688-9.687Z" transform="translate(-377.558 -173.507)"/><path class="l" d="M497,729c-3.953,0-13.779.491-19.959,10.983h28.506V729Z" transform="translate(-342.35 -523.17)"/><path class="g" d="M685.429,724c-3.953,0-13.779.491-19.959,10.983h28.5l.1-10.5Z" transform="translate(-477.577 -519.581)"/><path class="l" d="M619.25,151.606l55.057-37.27L631.673,76.22Z" transform="translate(-444.407 -54.7)"/><path class="l" d="M564.755,285.051s39.983-27.441,42.524-27.441c0,0,7.1,31.976-40.189,69.771-2.259,7.059-19.482,63.246-19.482,63.246L535.75,392.32s9.317-72.845,11.294-76.233S564.755,285.051,564.755,285.051Z" transform="translate(-384.483 -184.875)"/><path class="g" d="M5.647,0h0a5.647,5.647,0,0,1,5.647,5.647V145.668H0V5.647A5.647,5.647,0,0,1,5.647,0Z" transform="translate(166.176 51.981) rotate(22.76)"/><path class="l" d="M390.363,671.061l8.99-6.833L388.94,659.86Z" transform="translate(-279.124 -473.551)"/><path class="m" d="M481.67,385.96a9.69,9.69,0,1,1,9.69,9.69,9.69,9.69,0,0,1-9.69-9.69Z" transform="translate(-345.672 -270.032)"/><line class="n" x1="6.776" y2="6.858" transform="translate(185.411 25.919)"/><line class="n" x1="14.538" y2="14.642" transform="translate(183.296 30.968)"/><line class="n" x1="22.449" y2="22.613" transform="translate(181.136 36.109)"/><line class="n" x1="32.354" y2="32.591" transform="translate(178.431 42.547)"/><line class="n" x1="41.186" y2="41.488" transform="translate(176.037 48.304)"/><line class="n" x1="30.92" y2="31.14" transform="translate(192.481 53.826)"/></g></g></svg>