<svg xmlns="http://www.w3.org/2000/svg" xmlns:xlink="http://www.w3.org/1999/xlink" width="260" height="152" viewBox="0 0 260 152"><defs><style>.a,.j{fill:#fff;}.a{stroke:#707070;opacity:0.031;}.b{clip-path:url(#a);}.c{fill:#f7f7f7;}.d,.e,.g,.h,.n,.o{fill:none;stroke-linecap:round;stroke-linejoin:round;}.d,.e,.o{stroke:#fff;}.d{stroke-width:2.47px;opacity:0.155;}.e{stroke-width:3.06px;opacity:0.146;}.f,.i,.p{fill:#e9b000;}.g,.n{stroke:#000;}.g{stroke-width:8px;}.h{stroke:#f7f7f7;stroke-width:4.93px;}.i{opacity:0.502;}.k{fill:#f6dfa8;fill-rule:evenodd;}.l{fill:#cf9b00;}.m{fill:#f1d788;}.n{stroke-width:5.14px;}.o{stroke-width:2.48px;}.p{font-size:16px;font-family:Play-Bold, Play;font-weight:700;}</style><clipPath id="a"><rect class="a" width="260" height="152" transform="translate(9.53 -3.035)"/></clipPath></defs><g transform="translate(-9.53 3.035)"><g class="b"><g transform="translate(1.53 -0.035)"><path class="c" d="M245.421,35.51c24.594,26.121,34.774,68.5,24.034,102.392s-42.278,59.3-71.85,63.977-57.1-11.347-80.137-26.424S75.952,146.288,61.877,120.83s-23.632-62.249-9.4-85.979S104.664.4,143.182-.022,220.827,9.393,245.421,35.51Z" transform="translate(-29.373 0.035)"/><circle class="d" cx="59.595" cy="59.595" r="59.595" transform="translate(148.81 75.421)"/><path class="e" d="M82.033,91.35,46.315,135.516,1.53,190.891,146.387,227.2Z" transform="translate(-1.53 -57.899)"/><path class="f" d="M250.319,246.981c40.323,1.354,42.644,77.015,37.914,84.76s-62.831,5.015-70.58-5.011S220.285,245.952,250.319,246.981Z" transform="translate(-136.978 -156.556)"/><line class="g" x2="22.361" y2="32.563" transform="translate(109.417 106.289)"/><circle class="f" cx="20.004" cy="20.004" r="20.004" transform="translate(104.252 38.355)"/><path class="h" d="M331.21,147.166c.275-2.046-.275-3.81-1.23-3.939s-1.947,1.428-2.222,3.474.278,3.81,1.23,3.939S330.935,149.227,331.21,147.166Z" transform="translate(-208.301 -90.783)"/><rect class="i" width="23.679" height="23.679" rx="11.84" transform="translate(163.166 26.82) rotate(0.07)"/><circle class="f" cx="4.594" cy="4.594" r="4.594" transform="translate(182.255 22.261)"/><path class="j" d="M467.7,90.268l-4.184,7.226a1.794,1.794,0,0,0,1.552,2.694h8.346a1.8,1.8,0,0,0,1.559-2.69l-4.166-7.226a1.794,1.794,0,0,0-3.108,0Z" transform="translate(-294.259 -56.646)"/><path class="k" d="M311.17,326.8a9.638,9.638,0,1,1,9.638,9.638A9.638,9.638,0,0,1,311.17,326.8Z" transform="translate(-197.829 -201.054)"/><path class="l" d="M384.253,355.551l-31.113,5.491,10.981-46.121,31.113-5.491Z" transform="translate(-224.437 -196.153)"/><path class="m" d="M388.363,358.351l-31.113,5.491,10.981-46.121,31.113-5.491Z" transform="translate(-227.042 -197.929)"/><path class="n" d="M389.386,317.138a2.886,2.886,0,0,1-.106-.78,2.928,2.928,0,1,1,2.928,2.928" transform="translate(-247.348 -198.689)"/><path class="n" d="M413.452,312.868a3.037,3.037,0,0,1-.1-.78,2.928,2.928,0,1,1,2.928,2.928" transform="translate(-262.607 -195.982)"/><path class="n" d="M435.216,309.148a2.886,2.886,0,0,1-.106-.78,2.928,2.928,0,1,1,2.928,2.928" transform="translate(-276.402 -193.624)"/><path class="n" d="M457.743,304.875a2.928,2.928,0,1,1,2.819,2.141" transform="translate(-290.682 -190.911)"/><path class="k" d="M439.3,363.238a9.638,9.638,0,1,1,9.638,9.638,9.638,9.638,0,0,1-9.638-9.638Z" transform="translate(-279.059 -224.155)"/><rect class="f" width="31.377" height="38.127" rx="5.32" transform="translate(204.851 46.258)"/><circle class="j" cx="2.255" cy="2.255" r="2.255" transform="translate(208.405 50.526)"/><line class="o" x2="16.746" transform="translate(215.931 52.781)"/><circle class="j" cx="2.255" cy="2.255" r="2.255" transform="translate(208.405 59.776)"/><line class="o" x2="16.746" transform="translate(215.931 62.031)"/><circle class="j" cx="2.255" cy="2.255" r="2.255" transform="translate(208.405 69.022)"/><line class="o" x2="16.746" transform="translate(215.931 71.277)"/></g></g></g></svg>