<svg xmlns="http://www.w3.org/2000/svg" xmlns:xlink="http://www.w3.org/1999/xlink" width="260" height="158" viewBox="0 0 260 158"><defs><style>.a,.i{fill:#fff;}.a{stroke:#707070;}.b{clip-path:url(#a);}.c{fill:#f7f7f7;}.d,.e,.g,.h,.j,.m{fill:none;stroke-linecap:round;stroke-linejoin:round;}.d,.e,.g,.j{stroke:#fff;}.d{stroke-width:3.06px;}.d,.e{opacity:0.152;}.e{stroke-width:4.13px;}.f,.k{fill:#eb6e80;}.g{stroke-width:9.49px;opacity:0.088;}.h{stroke:#000;stroke-width:11.03px;}.j{stroke-width:10.07px;opacity:0.398;}.k,.m{fill-rule:evenodd;}.l{fill:#fe697d;}.m{stroke:#9ef5ee;stroke-width:6.94px;}</style><clipPath id="a"><rect class="a" width="260" height="158" transform="translate(360 272)"/></clipPath></defs><g class="b" transform="translate(-360 -272)"><g transform="translate(352 278)"><path class="c" d="M343.381,106.251c8.506,22.44-10.282,54.873-22.292,81.442s-17.2,47.181-35.748,66.065-50.448,36.071-76.011,28.349-44.876-40.506-51.987-75.052-2.061-70.868,17.586-95.847,54-38.638,89.079-39.249S334.885,83.814,343.381,106.251Z" transform="translate(-101.991 -48.856)"/><circle class="d" cx="69.326" cy="69.326" r="69.326" transform="translate(129.685 98.492)"/><path class="e" d="M104.155,13.06,2.07,139.286,185.759,185.32Z" transform="translate(-2.07 -10.205)"/><circle class="f" cx="25.219" cy="25.219" r="25.219" transform="translate(125.916 49.978)"/><circle class="g" cx="9.124" cy="9.124" r="9.124" transform="translate(203.453 0)"/><path class="h" d="M169.166,119,151.9,126.939l15.511,10.983Z" transform="translate(-100.428 -79.751)"/><rect width="22.223" height="22.223" rx="11.111" transform="matrix(0.958, -0.286, 0.286, 0.958, 229.523, 59.666)"/><circle class="i" cx="4.311" cy="4.311" r="4.311" transform="translate(246.505 48.981)"/><path class="i" d="M698.875,185.628l-1.81,7.623a1.687,1.687,0,0,0,2.123,2l7.506-2.243a1.683,1.683,0,0,0,.687-2.841l-5.7-5.376a1.687,1.687,0,0,0-2.81.835Z" transform="translate(-458.279 -122.634)"/><path class="j" d="M354.21,8.6V20.759a2.621,2.621,0,0,0,3.93,2.271l10.536-6.087a2.618,2.618,0,0,0,0-4.535L358.14,6.331A2.621,2.621,0,0,0,354.21,8.6Z" transform="translate(-233.237 -5.558)"/><path class="k" d="M650,341.426a17.936,17.936,0,1,1,17.936,17.936A17.936,17.936,0,0,1,650,341.426Z" transform="translate(-427.413 -213.991)"/><path class="k" d="M103,341.426a17.936,17.936,0,1,1,17.936,17.936A17.936,17.936,0,0,1,103,341.426Z" transform="translate(-68.327 -213.991)"/><path class="l" d="M259.97,371.91l55.258,122.131,60.985-120.5Z" transform="translate(-171.372 -245.777)"/><path class="m" d="M350.4,570.063a41.448,41.448,0,0,1,42.664,16.974" transform="translate(-230.736 -375.267)"/><path class="m" d="M333.74,524.617a41.417,41.417,0,0,1,55.976,14.621" transform="translate(-219.799 -342.456)"/></g></g></svg>