<svg xmlns="http://www.w3.org/2000/svg" xmlns:xlink="http://www.w3.org/1999/xlink" width="260" height="153" viewBox="0 0 260 153"><defs><style>.a,.f,.l{fill:none;}.b{clip-path:url(#a);}.c{fill:#f7f7f7;}.d,.i{fill:#e24e42;}.d{fill-rule:evenodd;}.e{opacity:0.071;}.f{stroke:#fff;stroke-width:3.06px;}.f,.l,.p{stroke-linecap:round;stroke-linejoin:round;}.g{fill:#777;}.h{fill:#c9463a;}.j{fill:#e97b72;}.k{fill:#f4bbb7;}.l,.m,.p{stroke:#000;}.l{stroke-width:4.49px;}.m{stroke-width:1.5px;}.n{fill:#fff;}.o{fill:#eaeaea;}.p{stroke-width:2px;}</style><clipPath id="a"><rect class="a" width="260" height="153" transform="translate(360 272)"/></clipPath></defs><g class="b" transform="translate(-360 -272)"><g transform="translate(352.47 249.535)"><g transform="translate(1.53 2.24)"><path class="c" d="M229.918,106.013c17.031,26.875,13.623,64.349,12.65,100.85s.54,72.066-16.483,83.711-52.562-.652-84.681-4.109-60.834,2-81.978-9.625S24.543,236.5,26.98,210.271s20.92-50.128,42.12-76.95,44.991-56.732,75.65-63.59S212.883,79.192,229.918,106.013Z" transform="translate(-18.052 -42.895)"/><path class="d" d="M289.476,228.261c-5.838-22.5-6.9-97.388,30.77-101.007,25.894-2.492,50.066,66.2,48.614,90.285C353.066,233.382,304.487,238.392,289.476,228.261Z" transform="translate(-177.219 -79.292)"/><g class="e"><circle class="f" cx="77.355" cy="77.355" r="77.355" transform="translate(119.364 114.745)"/><path class="f" d="M85.835,31,1.53,135.238l151.7,38.026Z" transform="translate(-1.53 -19.976)"/></g><path class="g" d="M388.88,453.371c3.833,6.517,15.1,27.423,16.974,29.746s65.656,41.806,65.656,41.806c-1.61,3.929-4.466,24.119,6.609,28.5,1.966-6.7,10.185-36.267,10.185-36.267l-8.663-2.235-39.575-47.433S437.306,403.914,429,396.14C420.869,400.518,388.88,453.371,388.88,453.371Z" transform="translate(-240.398 -245.147)"/><path class="h" d="M423.7,494.96c-9.725-6.191-17.227-11.094-17.852-11.883-1.878-2.323-13.133-23.226-16.974-29.746,0,0,31.989-52.853,40.119-57.231,5.543,5.186,8.61,35.063,10.036,54.475C435.792,467.2,430.943,483.38,423.7,494.96Z" transform="translate(-240.398 -245.123)"/><path class="i" d="M259.149,396.14c-6.9,4.328-51.316,16.318-63.111,17.694C190.924,422.29,144.71,526.49,144.71,526.49c-5.309-4.128-24.774-9.832-31.26-2.162,6.29,4.128,38.141,25.752,38.141,25.752S258.175,412.067,259.149,396.14Z" transform="translate(-70.548 -245.147)"/><rect class="j" width="35.09" height="35.09" rx="14.47" transform="translate(91.384 69.864) rotate(123)"/><rect class="c" width="63.18" height="20.508" rx="10" transform="translate(108.885 102.887) rotate(-54.609)"/><rect class="k" width="36.452" height="36.451" rx="14.47" transform="translate(80.082 78.54) rotate(-23.153)"/><circle class="l" cx="7.55" cy="7.55" r="7.55" transform="translate(95.221 80.083)"/><g transform="translate(61.981 54.102) rotate(30)"><path class="m" d="M21.485,16.7a6.085,6.085,0,1,0,6.085,6.085A6.085,6.085,0,0,0,21.485,16.7Zm0,9.983a3.9,3.9,0,1,1,3.9-3.9,3.9,3.9,0,0,1-3.9,3.9Z" transform="translate(-6.295 -6.243)"/><circle class="m" cx="1.379" cy="1.379" r="1.379" transform="translate(20.133 8.936)"/><path class="m" d="M25.077,6.749A6.77,6.77,0,0,0,20.086,4.8H10.293A6.512,6.512,0,0,0,3.4,11.693v9.745a6.84,6.84,0,0,0,2,5.087,6.937,6.937,0,0,0,4.944,1.854h9.7a7.019,7.019,0,0,0,4.991-1.854,6.806,6.806,0,0,0,1.949-5.039V11.693A6.815,6.815,0,0,0,25.077,6.749Zm-.19,14.737a4.645,4.645,0,0,1-1.379,3.47,4.914,4.914,0,0,1-3.47,1.236h-9.7a4.914,4.914,0,0,1-3.47-1.236,4.778,4.778,0,0,1-1.284-3.518V11.693A4.739,4.739,0,0,1,6.87,8.223a4.834,4.834,0,0,1,3.47-1.236h9.793A4.739,4.739,0,0,1,23.6,8.27a4.905,4.905,0,0,1,1.284,3.423v9.793Z"/></g><rect class="n" width="105.867" height="55.582" rx="9.05" transform="translate(50.714 91.546)"/><path class="d" d="M349.48,361.523a13.156,13.156,0,1,1,13.152,13.148,13.156,13.156,0,0,1-13.152-13.148Z" transform="translate(-216.101 -215.683)"/><path class="d" d="M93,320.836a13.156,13.156,0,1,1,13.156,13.156A13.156,13.156,0,0,1,93,320.836Z" transform="translate(-57.937 -190.596)"/><path class="d" d="M93,321.288A13.608,13.608,0,1,1,106.609,334.9,13.608,13.608,0,0,1,93,321.288Z" transform="translate(27.063 -297.596)"/><path class="o" d="M239.813,251.964l-.088-7.414a3.45,3.45,0,0,0-3.45-3.45H137.33a3.45,3.45,0,0,0-3.45,3.45V254.1C164.458,247.578,239.5,252.025,239.813,251.964Z" transform="translate(-83.147 -149.538)"/><line class="l" x1="13.01" y2="18.063" transform="translate(128.5 73.662)"/><rect class="n" width="117.67" height="14.528" rx="7.264" transform="translate(44.638 82.155)"/><g transform="translate(176.495 54.082) rotate(120)"><path class="p" d="M12,10v8.053l6.71-4.026Z" transform="translate(10.854 3.586) rotate(6.024)"/></g></g></g></g></svg>