<?xml version="1.0" standalone="no"?>
<!DOCTYPE svg PUBLIC "-//W3C//DTD SVG 20010904//EN"
 "http://www.w3.org/TR/2001/REC-SVG-20010904/DTD/svg10.dtd">
<svg version="1.0" xmlns="http://www.w3.org/2000/svg"
 width="598.000000pt" height="598.000000pt" viewBox="0 0 598.000000 598.000000"
 preserveAspectRatio="xMidYMid meet">
<metadata>
Created by potrace 1.11, written by Peter Selinger 2001-2013
</metadata>
<g transform="translate(0.000000,598.000000) scale(0.100000,-0.100000)"
fill="#000000" stroke="none">
<path d="M2755 5974 c-16 -2 -73 -9 -125 -15 -1170 -132 -2176 -984 -2510
-2124 -87 -298 -115 -505 -115 -845 0 -276 7 -350 51 -582 226 -1176 1176
-2126 2352 -2352 232 -44 306 -51 582 -51 276 0 350 7 582 51 1176 226 2126
1176 2352 2352 44 232 51 306 51 582 0 276 -7 350 -51 582 -171 888 -759 1666
-1575 2083 -297 152 -600 247 -959 301 -100 15 -562 28 -635 18z m-1228 -1606
c39 -112 85 -248 103 -303 18 -55 35 -103 39 -107 4 -4 53 132 109 302 l104
310 87 0 c48 0 90 -2 93 -5 3 -3 -59 -177 -137 -388 l-143 -382 -118 0 -118 0
-138 380 c-75 209 -137 383 -138 388 0 4 42 7 94 7 l94 0 69 -202z m1071 175
c79 -217 262 -722 267 -736 7 -16 0 -18 -90 -15 l-98 3 -35 103 -34 103 -141
-3 -140 -3 -35 -102 -34 -103 -94 0 -93 0 28 78 c158 425 252 679 256 690 3 9
36 12 119 12 l114 0 10 -27z m542 -363 l0 -390 -95 0 -95 0 0 390 0 390 95 0
95 0 0 -390z m-2190 -770 l0 -370 -115 0 -115 0 0 370 0 370 115 0 115 0 0
-370z m1608 -27 c79 -217 262 -722 267 -736 7 -16 0 -18 -90 -15 l-98 3 -35
103 -34 103 -141 -3 -140 -3 -35 -102 -34 -103 -94 0 -93 0 28 78 c158 425
252 679 256 690 3 9 36 12 119 12 l114 0 10 -27z m-713 2 c115 -29 144 -91
133 -286 -10 -173 -78 -219 -325 -219 l-113 0 0 -125 0 -125 -95 0 -95 0 0
385 0 385 218 0 c162 0 233 -4 277 -15z m-895 -765 l0 -370 -115 0 -115 0 0
370 0 370 115 0 115 0 0 -370z m918 -375 c115 -27 173 -72 201 -154 15 -45 15
-412 0 -466 -28 -99 -142 -154 -339 -162 -174 -7 -299 28 -354 100 -40 52 -49
118 -44 326 3 154 7 192 22 223 48 99 159 146 346 147 60 0 132 -6 168 -14z
m3271 -10 c62 -37 76 -66 79 -170 5 -121 -9 -151 -92 -207 -94 -63 -116 -87
-116 -125 l0 -33 -86 0 -87 0 6 60 c9 78 28 114 79 148 23 15 56 41 74 58 31
29 34 38 34 87 0 34 -5 59 -14 66 -24 21 -108 23 -208 7 -138 -23 -128 -26
-128 49 0 59 2 65 23 70 48 10 98 13 247 11 135 -1 159 -4 189 -21z m-2529
-246 l185 -262 3 262 2 261 85 0 85 0 0 -390 0 -390 -98 0 -98 0 -177 255
c-98 140 -183 257 -188 260 -5 4 -9 -95 -9 -254 l0 -261 -85 0 -85 0 0 390 0
390 98 0 98 0 184 -261z m1091 227 c25 -9 60 -31 78 -48 50 -49 61 -105 61
-318 0 -208 -10 -263 -57 -312 -50 -53 -100 -61 -390 -66 l-263 -4 0 387 0
387 263 -4 c216 -4 270 -7 308 -22z m879 -41 l0 -65 -205 0 -205 0 0 -90 0
-90 185 0 185 0 0 -65 0 -65 -185 0 -185 0 0 -100 0 -100 210 0 210 0 0 -65 0
-65 -305 0 -305 0 0 385 0 385 300 0 300 0 0 -65z m440 -620 l0 -85 -95 0 -95
0 0 85 0 85 95 0 95 0 0 -85z"/>
<path d="M2420 4268 c-25 -72 -46 -135 -48 -140 -2 -4 41 -8 96 -8 l100 0 -47
135 c-26 74 -49 136 -52 139 -2 3 -25 -54 -49 -126z"/>
<path d="M2380 3108 c-25 -72 -46 -135 -48 -140 -2 -4 41 -8 96 -8 l100 0 -47
135 c-26 74 -49 136 -52 139 -2 3 -25 -54 -49 -126z"/>
<path d="M1540 3140 l0 -132 98 4 c72 2 106 8 125 21 26 17 27 21 27 111 0 73
-3 96 -16 107 -10 8 -56 14 -125 17 l-109 5 0 -133z"/>
<path d="M1635 2124 c-11 -3 -30 -7 -43 -10 -12 -2 -31 -13 -42 -24 -19 -19
-20 -34 -20 -235 l0 -215 32 -20 c41 -24 120 -34 205 -25 54 6 72 12 95 35
l28 28 0 191 c0 104 -4 201 -10 215 -14 37 -63 58 -149 62 -42 1 -85 1 -96 -2z"/>
<path d="M3320 1855 l0 -258 134 5 c151 5 179 15 190 69 8 41 6 337 -3 369
-13 47 -62 64 -198 68 l-123 4 0 -257z"/>
</g>
</svg>
