<svg xmlns="http://www.w3.org/2000/svg" width="4.584" height="4.587" viewBox="0 0 4.584 4.587"><defs><style>.a{fill:#0089d3;}</style></defs><path class="a" d="M68.482,68.055l-1.566-1.572,1.57-1.552a.166.166,0,0,0,0-.234l-.446-.449a.164.164,0,0,0-.117-.048.169.169,0,0,0-.117.048l-1.563,1.547-1.565-1.546a.164.164,0,0,0-.117-.048.169.169,0,0,0-.117.048L64,64.7a.166.166,0,0,0,0,.234l1.57,1.552L64,68.055a.165.165,0,0,0-.049.117.161.161,0,0,0,.049.117l.446.449a.165.165,0,0,0,.117.049.162.162,0,0,0,.117-.049l1.559-1.566,1.56,1.565a.165.165,0,0,0,.117.049.162.162,0,0,0,.117-.049l.446-.449a.165.165,0,0,0,.049-.117A.171.171,0,0,0,68.482,68.055Z" transform="translate(-63.95 -64.2)"/></svg>