<svg xmlns="http://www.w3.org/2000/svg" width="18" height="18" viewBox="0 0 18 18"><defs><style>.a{fill:#fff;}</style></defs><g transform="translate(-126.7 -203.1)"><path class="a" d="M144.227,206.2a4.589,4.589,0,0,0-2.629-2.629,6.567,6.567,0,0,0-2.184-.417c-.96-.042-1.266-.056-3.714-.056s-2.754.007-3.714.056a6.53,6.53,0,0,0-2.184.417,4.589,4.589,0,0,0-2.629,2.629,6.568,6.568,0,0,0-.417,2.184c-.042.96-.056,1.266-.056,3.714s.007,2.754.056,3.714a6.53,6.53,0,0,0,.417,2.184,4.589,4.589,0,0,0,2.629,2.629,6.567,6.567,0,0,0,2.184.417c.96.042,1.266.056,3.714.056s2.754-.007,3.714-.056a6.53,6.53,0,0,0,2.184-.417A4.588,4.588,0,0,0,144.227,218a6.567,6.567,0,0,0,.417-2.184c.042-.96.056-1.266.056-3.714s-.007-2.754-.056-3.714A6.53,6.53,0,0,0,144.227,206.2Zm-1.2,9.536a4.919,4.919,0,0,1-.313,1.669,2.788,2.788,0,0,1-.675,1.036,2.817,2.817,0,0,1-1.036.675,4.961,4.961,0,0,1-1.669.313c-.953.042-1.231.056-3.638.056s-2.692-.007-3.638-.056a4.92,4.92,0,0,1-1.669-.313,2.787,2.787,0,0,1-1.036-.675,2.817,2.817,0,0,1-.675-1.036,4.96,4.96,0,0,1-.313-1.669c-.042-.953-.056-1.238-.056-3.638s.007-2.692.056-3.638a4.918,4.918,0,0,1,.313-1.669,2.787,2.787,0,0,1,.675-1.036,2.817,2.817,0,0,1,1.036-.675,4.96,4.96,0,0,1,1.669-.313c.953-.042,1.238-.056,3.638-.056s2.692.007,3.638.056a4.92,4.92,0,0,1,1.669.313,2.787,2.787,0,0,1,1.036.675,2.818,2.818,0,0,1,.675,1.036,4.96,4.96,0,0,1,.313,1.669c.042.953.056,1.238.056,3.638S143.066,214.792,143.024,215.738Z" transform="translate(0)"/><path class="a" d="M194.125,266a4.625,4.625,0,1,0,4.625,4.625A4.628,4.628,0,0,0,194.125,266Zm0,7.63a3,3,0,1,1,3-3A3.005,3.005,0,0,1,194.125,273.63Z" transform="translate(-58.432 -58.525)"/><circle class="a" cx="1.078" cy="1.078" r="1.078" transform="translate(139.421 206.216)"/></g></svg>